<?xml version="1.0" ?><!DOCTYPE svg  PUBLIC '-//W3C//DTD SVG 1.1//EN'  'http://www.w3.org/Graphics/SVG/1.1/DTD/svg11.dtd'><svg enable-background="new 0 0 512 512" id="Layer_1" version="1.1" viewBox="0 0 512 512" xml:space="preserve" xmlns="http://www.w3.org/2000/svg" xmlns:xlink="http://www.w3.org/1999/xlink"><g><path d="M144.9,246c0-24.8-0.4-49.7,0.1-74.5c0.8-42.8,20-75.4,56.7-97c29.3-17.2,60.8-19.7,92.8-8.3c32.4,11.6,55,34,67.6,66.2   c5.1,13,7.1,26.6,7.2,40.5c0.1,9-0.1,18,0.1,27c0,3.1-0.9,4.8-4.1,5.8c-14.4,4.3-28.8,8.8-43.3,13c-2.1,0.6-4.8,0.6-6.8-0.3   c-9.5-4.2-18.9-8.7-28.2-13.4c-1.5-0.7-2.9-3.1-3-4.8c-0.3-8.8-0.1-17.7-0.1-26.5c-0.1-19.5-17.3-32-35.9-26   c-10.4,3.3-17.7,13.8-17.7,25.6c-0.1,27.2,0,54.3-0.1,81.5c0,26,0.3,52-0.1,78c-0.6,38.5-17.1,69.1-48.2,91.3   c-22.6,16.1-48.6,22.7-76.1,19.3c-42.1-5.3-72.6-27.6-90.7-66.2c-6.7-14.3-9.8-29.6-9.8-45.4c-0.1-21.5,0.1-43-0.1-64.5   c0-4.2,1.2-5.5,5.3-5.4c25.2,0.1,50.3,0.2,75.5,0c4.3,0,5.8,1.1,5.7,5.6c-0.2,20.8,0,41.7-0.1,62.5c-0.1,11.8,5.3,20.3,15.7,24.9   c10.3,4.6,20.3,3,28.8-4.6c6.1-5.4,8.8-12.6,8.8-20.8C144.8,301.7,144.8,273.8,144.9,246z" fill="#8b8b8b"/><path d="M284.3,262.8c6.5,3,12.6,5.7,18.7,8.6c3.5,1.6,6.8,3.6,10.3,4.9c2.3,0.8,5.1,1.6,7.2,1c15.8-4.3,31.6-8.9,48-13.7   c0.2,2.2,0.6,4.2,0.6,6.3c0,20.7,0.1,41.3,0,62c0,11.2,4.3,19.8,14.3,25.5c16,9.2,38.2-2.5,38.6-20.9c0.4-22.8,0.3-45.7,0-68.5   c-0.1-5,1.7-6.1,6.3-6.1c24.7,0.2,49.3,0.2,74,0c4.7,0,6.3,1.1,6.2,6.1c-0.3,20.7,0,41.3-0.2,62c-0.4,43-18.6,76.1-55.6,98.5   c-26.6,16.1-55.3,19.5-84.9,12.1c-27.7-6.9-49.7-22.9-65.6-46.8c-11-16.5-17.7-34.7-18.2-54.5c-0.6-24.5-0.2-49-0.3-73.5   C283.9,264.9,284.1,264.1,284.3,262.8z" fill="#8b8b8b"/></g></svg>